<svg xmlns="http://www.w3.org/2000/svg" viewBox="0 0 800 380" width="800" height="380">
  <rect width="800" height="380" fill="#FFFCF0"/>

  <g font-family="'Space Grotesk', sans-serif" fill="#0D3B2E">
    <rect x="48" y="30" width="8" height="2" fill="#C45C26"/>
    <text x="64" y="34" font-size="10" opacity="0.6" letter-spacing="3">DEFINING THE PROBLEM</text>
  </g>

  <g transform="translate(400,220)">
    <rect x="-84" y="-36" width="168" height="72" rx="10" fill="#0D3B2E"/>
    <text x="0" y="-8" text-anchor="middle" font-family="'Space Grotesk', sans-serif" font-size="11" font-weight="700" fill="#FFFCF0">AMOUNT</text>
    <text x="0" y="8" text-anchor="middle" font-family="'Space Grotesk', sans-serif" font-size="11" font-weight="700" fill="#FFFCF0">DUE STATUS</text>
    <text x="0" y="24" text-anchor="middle" font-family="'Space Grotesk', sans-serif" font-size="11" font-weight="700" fill="#FFFCF0">PENALTIES</text>

    <path d="M0 -36 L0 -84" stroke="#0D3B2E" stroke-width="2" stroke-dasharray="5 4" opacity="0.5"/>
    <circle cx="0" cy="-96" r="3" fill="#0D3B2E"/>
    <text x="0" y="-108" text-anchor="middle" font-family="'DM Serif Display', serif" font-style="italic" font-size="17" fill="#0D3B2E">how much to pay?</text>

    <path d="M-84 -10 C-140 -10 -160 -78 -200 -78" stroke="#0D3B2E" stroke-width="2" stroke-dasharray="5 4" fill="none" opacity="0.5"/>
    <circle cx="-204" cy="-78" r="3" fill="#0D3B2E"/>
    <text x="-208" y="-90" text-anchor="end" font-family="'DM Serif Display', serif" font-style="italic" font-size="17" fill="#0D3B2E">when to pay?</text>

    <path d="M84 -18 C150 -18 170 -60 216 -60" stroke="#C45C26" stroke-width="2" stroke-dasharray="5 4" fill="none"/>
    <circle cx="220" cy="-60" r="3" fill="#C45C26"/>
    <text x="228" y="-52" text-anchor="start" font-family="'DM Serif Display', serif" font-style="italic" font-size="17" fill="#C45C26">level of urgency</text>

    <path d="M-84 18 C-150 18 -170 66 -216 66" stroke="#0D3B2E" stroke-width="2" stroke-dasharray="5 4" fill="none" opacity="0.5"/>
    <circle cx="-220" cy="66" r="3" fill="#0D3B2E"/>
    <text x="-224" y="82" text-anchor="end" font-family="'DM Serif Display', serif" font-style="italic" font-size="17" fill="#0D3B2E">why pay?</text>

    <path d="M84 26 C150 26 170 68 210 68" stroke="#0D3B2E" stroke-width="2" stroke-dasharray="5 4" fill="none" opacity="0.5"/>
    <circle cx="214" cy="68" r="3" fill="#0D3B2E"/>
    <text x="222" y="84" text-anchor="start" font-family="'DM Serif Display', serif" font-style="italic" font-size="17" fill="#0D3B2E">who is asking?</text>
  </g>
</svg>
