<svg xmlns="http://www.w3.org/2000/svg" viewBox="0 0 800 440" width="800" height="440">
  <rect width="800" height="440" fill="#FFFCF0"/>
  <circle cx="700" cy="60" r="120" fill="#C5F135" opacity="0.25"/>

  <g font-family="'Space Grotesk', sans-serif" fill="#0D3B2E">
    <rect x="48" y="36" width="8" height="2" fill="#C45C26"/>
    <text x="64" y="40" font-size="10" fill="#0D3B2E" opacity="0.6" letter-spacing="3">DEFINING THE PROBLEM</text>
  </g>

  <g transform="translate(400,240)">
    <rect x="-90" y="-40" width="180" height="80" rx="12" fill="none" stroke="#0D3B2E" stroke-width="3"/>
    <rect x="-90" y="-40" width="60" height="80" rx="0" fill="none" stroke="#0D3B2E" stroke-width="2" stroke-dasharray="4 3"/>
    <text x="-60" y="6" text-anchor="middle" font-family="'Space Grotesk', sans-serif" font-size="11" fill="#C45C26" font-weight="700">DATE</text>
    <text x="10" y="-6" text-anchor="middle" font-family="'Space Grotesk', sans-serif" font-size="12" fill="#0D3B2E">AMOUNT</text>
    <text x="10" y="12" text-anchor="middle" font-family="'Space Grotesk', sans-serif" font-size="12" fill="#0D3B2E">DUE STATUS</text>
    <text x="10" y="30" text-anchor="middle" font-family="'Space Grotesk', sans-serif" font-size="12" fill="#0D3B2E">PENALTIES</text>

    <path d="M0 -40 L0 -110" stroke="#0D3B2E" stroke-width="2" stroke-dasharray="5 4"/>
    <text x="0" y="-124" text-anchor="middle" font-family="'DM Serif Display', serif" font-style="italic" font-size="18" fill="#0D3B2E">how much to pay?</text>

    <path d="M-90 0 C-160 0 -190 40 -230 40" stroke="#0D3B2E" stroke-width="2" stroke-dasharray="5 4" fill="none"/>
    <text x="-236" y="30" text-anchor="end" font-family="'DM Serif Display', serif" font-style="italic" font-size="18" fill="#0D3B2E">when to pay?</text>

    <path d="M90 -20 C160 -20 190 -70 230 -70" stroke="#C45C26" stroke-width="2" stroke-dasharray="5 4" fill="none"/>
    <text x="236" y="-62" text-anchor="start" font-family="'DM Serif Display', serif" font-style="italic" font-size="18" fill="#C45C26">level of urgency</text>

    <path d="M0 40 C0 90 30 100 60 130" stroke="#0D3B2E" stroke-width="2" stroke-dasharray="5 4" fill="none"/>
    <text x="68" y="150" text-anchor="start" font-family="'DM Serif Display', serif" font-style="italic" font-size="18" fill="#0D3B2E">why pay?</text>
  </g>
</svg>
