<svg xmlns="http://www.w3.org/2000/svg" viewBox="0 0 380 440" width="380" height="440">
  <rect width="380" height="440" fill="#FFFCF0"/>
  <circle cx="330" cy="40" r="90" fill="#C5F135" opacity="0.3"/>

  <g transform="translate(30,30)">
    <rect x="0" y="0" width="320" height="380" rx="16" fill="none" stroke="#0D3B2E" stroke-width="3"/>
    <rect x="0" y="0" width="320" height="6" rx="3" fill="#C45C26"/>

    <text x="24" y="46" font-family="'DM Serif Display', serif" font-size="20" fill="#0D3B2E">₹2,464.7 is overdue</text>
    <text x="24" y="68" font-family="'Space Grotesk', sans-serif" font-size="11" fill="#0D3B2E" opacity="0.65">Please repay immediately to avoid</text>
    <text x="24" y="82" font-family="'Space Grotesk', sans-serif" font-size="11" fill="#0D3B2E" opacity="0.65">more penalties</text>

    <line x1="24" y1="100" x2="296" y2="100" stroke="#0D3B2E" stroke-width="1" stroke-dasharray="3 3" opacity="0.4"/>

    <g font-family="'Space Grotesk', sans-serif">
      <circle cx="38" cy="132" r="14" fill="none" stroke="#C45C26" stroke-width="2"/>
      <text x="38" y="137" text-anchor="middle" font-size="12" fill="#C45C26" font-weight="700">1</text>
      <text x="62" y="128" font-size="13" font-weight="700" fill="#0D3B2E">Late fee of ₹150</text>
      <text x="62" y="146" font-size="10" fill="#0D3B2E" opacity="0.6">Fees pile up the longer it's unpaid</text>

      <circle cx="38" cy="182" r="14" fill="none" stroke="#C45C26" stroke-width="2"/>
      <text x="38" y="187" text-anchor="middle" font-size="12" fill="#C45C26" font-weight="700">2</text>
      <text x="62" y="178" font-size="13" font-weight="700" fill="#0D3B2E">Credit score impact</text>
      <text x="62" y="196" font-size="10" fill="#0D3B2E" opacity="0.6">Affects future loan eligibility</text>

      <circle cx="38" cy="232" r="14" fill="none" stroke="#C45C26" stroke-width="2"/>
      <text x="38" y="237" text-anchor="middle" font-size="12" fill="#C45C26" font-weight="700">3</text>
      <text x="62" y="228" font-size="13" font-weight="700" fill="#0D3B2E">Transactions blocked</text>
      <text x="62" y="246" font-size="10" fill="#0D3B2E" opacity="0.6">Can't use the limit until repaid</text>
    </g>

    <rect x="24" y="316" width="272" height="44" rx="8" fill="#0D3B2E"/>
    <text x="160" y="343" text-anchor="middle" font-family="'Space Grotesk', sans-serif" font-size="13" font-weight="700" fill="#FFFCF0">Pay Now</text>
  </g>
</svg>
