<svg xmlns="http://www.w3.org/2000/svg" viewBox="0 0 800 300" width="800" height="300">
  <rect width="800" height="300" fill="#FFFCF0"/>
  <circle cx="120" cy="60" r="90" fill="#C5F135" opacity="0.25"/>

  <g font-family="'Space Grotesk', sans-serif" fill="#0D3B2E">
    <rect x="48" y="30" width="8" height="2" fill="#C45C26"/>
    <text x="64" y="34" font-size="10" opacity="0.6" letter-spacing="3">BETTER NAVIGATION</text>
  </g>

  <!-- coach mark bubble -->
  <g transform="translate(220,80)">
    <rect x="0" y="0" width="360" height="72" rx="14" fill="#0D3B2E"/>
    <path d="M170 72 L190 72 L180 92 Z" fill="#0D3B2E"/>
    <text x="180" y="30" text-anchor="middle" font-family="'Space Grotesk', sans-serif" font-size="13" font-weight="700" fill="#FFFCF0">'Activity' is now 'Dues'</text>
    <text x="180" y="52" text-anchor="middle" font-family="'Space Grotesk', sans-serif" font-size="11" fill="#FFFCF0" opacity="0.8">Track and pay dues and EMIs here</text>
  </g>

  <!-- bottom nav bar -->
  <g transform="translate(220,190)">
    <rect x="0" y="0" width="360" height="80" rx="24" fill="none" stroke="#0D3B2E" stroke-width="2.5"/>

    <g font-family="'Space Grotesk', sans-serif" fill="#0D3B2E">
      <circle cx="80" cy="32" r="15" fill="none" stroke="#0D3B2E" stroke-width="2"/>
      <path d="M74 34 l6 -8 l6 8" stroke="#0D3B2E" stroke-width="2" fill="none" stroke-linecap="round" stroke-linejoin="round"/>
      <text x="80" y="60" text-anchor="middle" font-size="12" font-weight="700">Home</text>

      <circle cx="180" cy="32" r="15" fill="none" stroke="#C45C26" stroke-width="2.5"/>
      <circle cx="192" cy="20" r="4" fill="#C45C26"/>
      <path d="M172 32 h16 M180 24 v16" stroke="#C45C26" stroke-width="2" stroke-linecap="round"/>
      <text x="180" y="60" text-anchor="middle" font-size="12" font-weight="700" fill="#C45C26">Dues</text>

      <circle cx="280" cy="32" r="15" fill="none" stroke="#0D3B2E" stroke-width="2" opacity="0.55"/>
      <text x="280" y="60" text-anchor="middle" font-size="12" opacity="0.55">Profile</text>
    </g>
  </g>
</svg>
