<svg xmlns="http://www.w3.org/2000/svg" viewBox="0 0 800 380" width="800" height="380">
  <rect width="800" height="380" fill="#FFFCF0"/>

  <g font-family="'Space Grotesk', sans-serif" fill="#0D3B2E">
    <rect x="48" y="30" width="8" height="2" fill="#C45C26"/>
    <text x="64" y="34" font-size="10" opacity="0.6" letter-spacing="3">IMPACT · NOTIFICATION CLICK-THROUGH</text>
  </g>

  <g transform="translate(90,80)" font-family="'Space Grotesk', sans-serif">
    <text x="0" y="0" font-size="12" font-weight="700" fill="#0D3B2E" opacity="0.55">OLD · INLINE BANNER</text>
    <rect x="0" y="16" width="130" height="200" rx="6" fill="none" stroke="#0D3B2E" stroke-width="1.5" opacity="0.35"/>
    <rect x="0" y="16" width="130" height="200" fill="#0D3B2E" opacity="0.06"/>
    <rect x="0" y="79" width="130" height="137" fill="#0D3B2E" opacity="0.28"/>
    <text x="65" y="240" text-anchor="middle" font-size="22" font-weight="700" fill="#0D3B2E">63.76%</text>
    <text x="65" y="258" text-anchor="middle" font-size="10" fill="#0D3B2E" opacity="0.6">reached next step</text>
  </g>

  <path d="M280 176 L340 176" stroke="#0D3B2E" stroke-width="2" stroke-dasharray="4 3" opacity="0.4"/>
  <path d="M336 170 L344 176 L336 182" stroke="#0D3B2E" stroke-width="2" fill="none" opacity="0.4"/>

  <g transform="translate(380,80)" font-family="'Space Grotesk', sans-serif">
    <text x="0" y="0" font-size="12" font-weight="700" fill="#C45C26">NEW · REDESIGNED CARD</text>
    <rect x="0" y="16" width="130" height="200" rx="6" fill="none" stroke="#C45C26" stroke-width="1.5"/>
    <rect x="0" y="16" width="130" height="200" fill="#C45C26" opacity="0.06"/>
    <rect x="0" y="55" width="130" height="161" fill="#C45C26" opacity="0.32"/>
    <text x="65" y="240" text-anchor="middle" font-size="22" font-weight="700" fill="#C45C26">72.82%</text>
    <text x="65" y="258" text-anchor="middle" font-size="10" fill="#0D3B2E" opacity="0.6">reached next step</text>
  </g>

  <g transform="translate(590,120)" font-family="'Space Grotesk', sans-serif">
    <rect x="0" y="0" width="8" height="70" rx="4" fill="#C5F135"/>
    <text x="24" y="34" font-size="26" font-weight="700" fill="#0D3B2E">+9pts</text>
    <text x="24" y="56" font-size="11" fill="#0D3B2E" opacity="0.6">lift in click-through</text>
  </g>
</svg>
