<svg xmlns="http://www.w3.org/2000/svg" viewBox="0 0 960 560" width="960" height="560">
  <rect width="960" height="560" fill="#FFFCF0"/>
  <circle cx="820" cy="90" r="170" fill="#C5F135" opacity="0.35"/>
  <circle cx="110" cy="480" r="140" fill="#C45C26" opacity="0.16"/>

  <g transform="translate(330,50)">
    <rect x="0" y="0" width="300" height="460" rx="32" fill="#0D3B2E"/>
    <rect x="10" y="10" width="280" height="440" rx="24" fill="#FFFCF0"/>
    <rect x="122" y="20" width="56" height="7" rx="3.5" fill="#0D3B2E" opacity="0.25"/>

    <rect x="26" y="44" width="248" height="50" rx="10" fill="#C45C26"/>
    <text x="150" y="65" text-anchor="middle" font-family="'Space Grotesk', sans-serif" font-size="12" font-weight="700" fill="#FFFCF0" letter-spacing="0.5">DUE BY 3 AUG</text>
    <text x="150" y="82" text-anchor="middle" font-family="'Space Grotesk', sans-serif" font-size="10.5" fill="#FFFCF0" opacity="0.85">₹7,540.00 · avoid ₹150 late fee</text>

    <g font-family="'Space Grotesk', sans-serif" fill="#0D3B2E">
      <rect x="26" y="108" width="76" height="72" rx="10" fill="none" stroke="#0D3B2E" stroke-width="1.5"/>
      <circle cx="64" cy="134" r="10" fill="none" stroke="#C45C26" stroke-width="1.5"/>
      <text x="64" y="164" text-anchor="middle" font-size="9">PayLater</text>

      <rect x="112" y="108" width="76" height="72" rx="10" fill="none" stroke="#0D3B2E" stroke-width="1.5"/>
      <rect x="140" y="124" width="20" height="20" fill="none" stroke="#C45C26" stroke-width="1.5"/>
      <text x="150" y="164" text-anchor="middle" font-size="9">XpressLoan</text>

      <rect x="198" y="108" width="76" height="72" rx="10" fill="none" stroke="#0D3B2E" stroke-width="1.5"/>
      <path d="M224 124 h20 v20 h-20 z" fill="none" stroke="#C45C26" stroke-width="1.5"/>
      <text x="236" y="164" text-anchor="middle" font-size="9">BillPay</text>
    </g>

    <text x="26" y="206" font-family="'Space Grotesk', sans-serif" font-size="12" font-weight="700" fill="#0D3B2E">Track your progress</text>
    <rect x="26" y="218" width="248" height="78" rx="10" fill="none" stroke="#0D3B2E" stroke-width="1.5" stroke-dasharray="4 3"/>
    <text x="42" y="244" font-family="'Space Grotesk', sans-serif" font-size="9.5" fill="#0D3B2E" opacity="0.6">XPRESSLOAN</text>
    <text x="42" y="264" font-family="'Space Grotesk', sans-serif" font-size="12.5" fill="#0D3B2E">₹45,000 is waiting</text>
    <circle cx="248" cy="256" r="22" fill="none" stroke="#C5F135" stroke-width="5"/>
    <text x="248" y="260" text-anchor="middle" font-family="'Space Grotesk', sans-serif" font-size="9.5" fill="#0D3B2E">1 left</text>

    <rect x="26" y="312" width="248" height="52" rx="10" fill="none" stroke="#0D3B2E" stroke-width="1.5" stroke-dasharray="4 3"/>
    <text x="42" y="333" font-family="'Space Grotesk', sans-serif" font-size="9.5" fill="#C45C26" font-weight="700">LAST DATE: 5 AUG</text>
    <text x="42" y="351" font-family="'Space Grotesk', sans-serif" font-size="10.5" fill="#0D3B2E">Your KYC details will expire</text>

    <g transform="translate(26,384)" font-family="'Space Grotesk', sans-serif" fill="#0D3B2E">
      <circle cx="10" cy="10" r="10" fill="none" stroke="#0D3B2E" stroke-width="1.5"/>
      <text x="10" y="32" text-anchor="middle" font-size="8" font-weight="700">Home</text>
      <circle cx="92" cy="10" r="10" fill="none" stroke="#C45C26" stroke-width="1.5"/>
      <circle cx="99" cy="4" r="3" fill="#C45C26"/>
      <text x="92" y="32" text-anchor="middle" font-size="8" font-weight="700" fill="#C45C26">Dues</text>
      <circle cx="174" cy="10" r="10" fill="none" stroke="#0D3B2E" stroke-width="1.5" opacity="0.5"/>
      <text x="174" y="32" text-anchor="middle" font-size="8" opacity="0.5">Profile</text>
    </g>
  </g>

  <g transform="translate(60,506)" font-family="'Space Grotesk', sans-serif">
    <rect x="0" y="-8" width="9" height="9" fill="#C45C26"/>
    <text x="18" y="0" font-size="11" fill="#0D3B2E" letter-spacing="2">LAZYPAY · REPAYMENTS</text>
  </g>
</svg>
