<svg xmlns="http://www.w3.org/2000/svg" viewBox="0 0 1200 700" width="1200" height="700">
  <rect width="1200" height="700" fill="#FFFCF0"/>
  <circle cx="1020" cy="120" r="220" fill="#C5F135" opacity="0.35"/>
  <circle cx="150" cy="600" r="180" fill="#C45C26" opacity="0.18"/>

  <g transform="translate(430,90)">
    <rect x="0" y="0" width="340" height="560" rx="36" fill="none" stroke="#0D3B2E" stroke-width="4"/>
    <rect x="14" y="14" width="312" height="532" rx="24" fill="#FFFCF0" stroke="#0D3B2E" stroke-width="2"/>
    <rect x="128" y="26" width="84" height="10" rx="5" fill="none" stroke="#0D3B2E" stroke-width="2"/>

    <rect x="30" y="56" width="150" height="26" rx="4" fill="#C45C26"/>
    <text x="105" y="73" text-anchor="middle" font-family="'Space Grotesk', sans-serif" font-size="12" font-weight="700" fill="#FFFCF0" letter-spacing="1">DUE BY 3 AUG</text>

    <rect x="30" y="94" width="266" height="86" rx="10" fill="none" stroke="#0D3B2E" stroke-width="2" stroke-dasharray="5 4"/>
    <text x="46" y="128" font-family="'DM Serif Display', serif" font-size="24" fill="#0D3B2E">₹7,540.00 due</text>
    <text x="46" y="154" font-family="'Space Grotesk', sans-serif" font-size="12" fill="#0D3B2E" opacity="0.7">Avoid ₹150 late fee. Repay now!</text>
    <path d="M270 130 L282 137 L270 144" stroke="#C45C26" stroke-width="2.5" fill="none" stroke-linecap="round" stroke-linejoin="round"/>

    <g font-family="'Space Grotesk', sans-serif">
      <rect x="30" y="198" width="80" height="80" rx="10" fill="none" stroke="#0D3B2E" stroke-width="2"/>
      <circle cx="70" cy="228" r="12" fill="none" stroke="#C45C26" stroke-width="2"/>
      <text x="70" y="258" text-anchor="middle" font-size="10" fill="#0D3B2E">PayLater</text>

      <rect x="123" y="198" width="80" height="80" rx="10" fill="none" stroke="#0D3B2E" stroke-width="2"/>
      <rect x="106" y="216" width="24" height="24" fill="none" stroke="#C45C26" stroke-width="2" transform="translate(17,0)"/>
      <text x="163" y="258" text-anchor="middle" font-size="10" fill="#0D3B2E">XpressLoan</text>

      <rect x="216" y="198" width="80" height="80" rx="10" fill="none" stroke="#0D3B2E" stroke-width="2"/>
      <path d="M244 220 h24 v24 h-24 z" fill="none" stroke="#C45C26" stroke-width="2"/>
      <text x="256" y="258" text-anchor="middle" font-size="10" fill="#0D3B2E">BillPay</text>
    </g>

    <text x="30" y="308" font-family="'Space Grotesk', sans-serif" font-size="13" font-weight="700" fill="#0D3B2E">Track your progress</text>
    <rect x="30" y="322" width="266" height="90" rx="10" fill="none" stroke="#0D3B2E" stroke-width="2" stroke-dasharray="5 4"/>
    <circle cx="266" cy="367" r="26" fill="none" stroke="#C5F135" stroke-width="6"/>
    <text x="266" y="371" text-anchor="middle" font-family="'Space Grotesk', sans-serif" font-size="11" fill="#0D3B2E">1 left</text>
    <text x="46" y="352" font-family="'Space Grotesk', sans-serif" font-size="11" fill="#0D3B2E" opacity="0.7">XPRESSLOAN</text>
    <text x="46" y="374" font-family="'Space Grotesk', sans-serif" font-size="13" fill="#0D3B2E">₹45,000 is waiting</text>

    <rect x="30" y="440" width="266" height="60" rx="10" fill="none" stroke="#0D3B2E" stroke-width="2" stroke-dasharray="5 4"/>
    <text x="46" y="464" font-family="'Space Grotesk', sans-serif" font-size="10" fill="#C45C26" opacity="0.8">LAST DATE: 5 AUG</text>
    <text x="46" y="484" font-family="'Space Grotesk', sans-serif" font-size="11" fill="#0D3B2E">Your KYC details will expire</text>
  </g>

  <g transform="translate(90,590)" font-family="'Space Grotesk', sans-serif">
    <rect x="0" y="0" width="10" height="10" fill="#C45C26" transform="rotate(-2)"/>
    <text x="20" y="9" font-size="11" fill="#0D3B2E" letter-spacing="2">LAZYPAY · REPAYMENTS</text>
  </g>
</svg>
