<svg xmlns="http://www.w3.org/2000/svg" viewBox="0 0 340 620" width="340" height="620">
  <rect width="340" height="620" fill="#FFFCF0"/>

  <g transform="translate(20,20)">
    <rect x="0" y="0" width="300" height="580" rx="36" fill="#0D3B2E"/>
    <rect x="10" y="10" width="280" height="560" rx="26" fill="#FFFCF0"/>
    <rect x="122" y="22" width="56" height="7" rx="3.5" fill="#0D3B2E" opacity="0.25"/>

    <g transform="translate(26,50)">
      <rect x="0" y="0" width="248" height="330" rx="14" fill="none" stroke="#C45C26" stroke-width="2"/>
      <rect x="0" y="0" width="248" height="6" rx="3" fill="#C45C26"/>

      <text x="20" y="42" font-family="'DM Serif Display', serif" font-size="18" fill="#0D3B2E">₹2,464.7 overdue</text>
      <text x="20" y="62" font-family="'Space Grotesk', sans-serif" font-size="10" fill="#0D3B2E" opacity="0.6">Repay now to avoid more penalties</text>

      <line x1="20" y1="80" x2="228" y2="80" stroke="#0D3B2E" stroke-width="1" opacity="0.15"/>

      <g font-family="'Space Grotesk', sans-serif">
        <circle cx="34" cy="108" r="13" fill="none" stroke="#C45C26" stroke-width="1.5"/>
        <text x="34" y="112" text-anchor="middle" font-size="11" fill="#C45C26" font-weight="700">1</text>
        <text x="56" y="104" font-size="12" font-weight="700" fill="#0D3B2E">Late fee of ₹150</text>
        <text x="56" y="120" font-size="9.5" fill="#0D3B2E" opacity="0.6">Fees increase the longer it's unpaid</text>

        <circle cx="34" cy="156" r="13" fill="none" stroke="#C45C26" stroke-width="1.5"/>
        <text x="34" y="160" text-anchor="middle" font-size="11" fill="#C45C26" font-weight="700">2</text>
        <text x="56" y="152" font-size="12" font-weight="700" fill="#0D3B2E">Credit score impact</text>
        <text x="56" y="168" font-size="9.5" fill="#0D3B2E" opacity="0.6">Affects future loan eligibility</text>

        <circle cx="34" cy="204" r="13" fill="none" stroke="#C45C26" stroke-width="1.5"/>
        <text x="34" y="208" text-anchor="middle" font-size="11" fill="#C45C26" font-weight="700">3</text>
        <text x="56" y="200" font-size="12" font-weight="700" fill="#0D3B2E">Transactions blocked</text>
        <text x="56" y="216" font-size="9.5" fill="#0D3B2E" opacity="0.6">Can't use your limit until repaid</text>
      </g>

      <rect x="20" y="264" width="208" height="44" rx="8" fill="#0D3B2E"/>
      <text x="124" y="291" text-anchor="middle" font-family="'Space Grotesk', sans-serif" font-size="13" font-weight="700" fill="#FFFCF0">Pay Now</text>
    </g>
  </g>
</svg>
