<svg xmlns="http://www.w3.org/2000/svg" viewBox="0 0 340 660" width="340" height="660">
  <rect width="340" height="660" fill="#FFFCF0"/>

  <g transform="translate(20,20)">
    <rect x="0" y="0" width="300" height="620" rx="36" fill="#0D3B2E" opacity="0.9"/>
    <rect x="10" y="10" width="280" height="600" rx="26" fill="#FFFCF0" opacity="0.4"/>
    <rect x="122" y="22" width="56" height="7" rx="3.5" fill="#0D3B2E" opacity="0.15"/>

    <!-- dimmed background hint -->
    <text x="150" y="80" text-anchor="middle" font-family="'Space Grotesk', sans-serif" font-size="10" fill="#0D3B2E" opacity="0.3">DUE SINCE 3 AUG · ₹2,464.7</text>

    <!-- bottom sheet -->
    <g transform="translate(10,220)">
      <rect x="0" y="0" width="280" height="390" rx="22" fill="#FFFCF0" stroke="#0D3B2E" stroke-width="2.5"/>
      <rect x="0" y="0" width="280" height="8" rx="4" fill="#C45C26"/>
      <rect x="120" y="20" width="40" height="4" rx="2" fill="#0D3B2E" opacity="0.2"/>

      <text x="24" y="56" font-family="'DM Serif Display', serif" font-size="19" fill="#0D3B2E">₹2,464.7 overdue</text>
      <text x="24" y="76" font-family="'Space Grotesk', sans-serif" font-size="10" fill="#0D3B2E" opacity="0.6">Repay immediately to avoid more penalties</text>

      <line x1="24" y1="94" x2="256" y2="94" stroke="#0D3B2E" stroke-width="1" opacity="0.15"/>

      <g font-family="'Space Grotesk', sans-serif">
        <circle cx="38" cy="122" r="13" fill="none" stroke="#C45C26" stroke-width="1.5"/>
        <text x="38" y="126" text-anchor="middle" font-size="11" fill="#C45C26" font-weight="700">1</text>
        <text x="60" y="118" font-size="12" font-weight="700" fill="#0D3B2E">Late fee of ₹150</text>
        <text x="60" y="134" font-size="9.5" fill="#0D3B2E" opacity="0.6">Fees increase if unpaid</text>

        <circle cx="38" cy="170" r="13" fill="none" stroke="#C45C26" stroke-width="1.5"/>
        <text x="38" y="174" text-anchor="middle" font-size="11" fill="#C45C26" font-weight="700">2</text>
        <text x="60" y="166" font-size="12" font-weight="700" fill="#0D3B2E">Credit score impact</text>
        <text x="60" y="182" font-size="9.5" fill="#0D3B2E" opacity="0.6">Affects future loan chances</text>

        <circle cx="38" cy="218" r="13" fill="none" stroke="#C45C26" stroke-width="1.5"/>
        <text x="38" y="222" text-anchor="middle" font-size="11" fill="#C45C26" font-weight="700">3</text>
        <text x="60" y="214" font-size="12" font-weight="700" fill="#0D3B2E">Transactions blocked</text>
        <text x="60" y="230" font-size="9.5" fill="#0D3B2E" opacity="0.6">Can't use your limit anywhere</text>
      </g>

      <rect x="24" y="316" width="232" height="46" rx="8" fill="#0D3B2E"/>
      <text x="140" y="345" text-anchor="middle" font-family="'Space Grotesk', sans-serif" font-size="13.5" font-weight="700" fill="#FFFCF0">Pay Now</text>
    </g>
  </g>
</svg>
