<svg xmlns="http://www.w3.org/2000/svg" viewBox="0 0 800 260" width="800" height="260">
  <rect width="800" height="260" fill="#FFFCF0"/>

  <g font-family="'Space Grotesk', sans-serif" fill="#0D3B2E">
    <rect x="48" y="26" width="8" height="2" fill="#C45C26"/>
    <text x="64" y="30" font-size="10" opacity="0.6" letter-spacing="3">BETTER NAVIGATION</text>
  </g>

  <g transform="translate(240,58)">
    <rect x="0" y="0" width="320" height="66" rx="14" fill="#0D3B2E"/>
    <path d="M150 66 L170 66 L160 84 Z" fill="#0D3B2E"/>
    <text x="160" y="28" text-anchor="middle" font-family="'Space Grotesk', sans-serif" font-size="12.5" font-weight="700" fill="#FFFCF0">"Activity" is now "Dues"</text>
    <text x="160" y="48" text-anchor="middle" font-family="'Space Grotesk', sans-serif" font-size="10.5" fill="#FFFCF0" opacity="0.8">Track and pay dues and EMIs here</text>
  </g>

  <g transform="translate(240,166)">
    <rect x="0" y="0" width="320" height="72" rx="20" fill="none" stroke="#0D3B2E" stroke-width="2"/>

    <g font-family="'Space Grotesk', sans-serif" fill="#0D3B2E">
      <circle cx="70" cy="30" r="13" fill="none" stroke="#0D3B2E" stroke-width="1.5"/>
      <path d="M64 32 l6 -7 l6 7" stroke="#0D3B2E" stroke-width="1.5" fill="none" stroke-linecap="round" stroke-linejoin="round"/>
      <text x="70" y="56" text-anchor="middle" font-size="10.5" font-weight="700">Home</text>

      <circle cx="160" cy="30" r="13" fill="none" stroke="#C45C26" stroke-width="2"/>
      <circle cx="170" cy="20" r="3.5" fill="#C45C26"/>
      <path d="M154 30 h12 M160 24 v12" stroke="#C45C26" stroke-width="1.8" stroke-linecap="round"/>
      <text x="160" y="56" text-anchor="middle" font-size="10.5" font-weight="700" fill="#C45C26">Dues</text>

      <circle cx="250" cy="30" r="13" fill="none" stroke="#0D3B2E" stroke-width="1.5" opacity="0.5"/>
      <text x="250" y="56" text-anchor="middle" font-size="10.5" opacity="0.5">Profile</text>
    </g>
  </g>
</svg>
